<?xml version="1.0" standalone="no"?><!DOCTYPE svg PUBLIC "-//W3C//DTD SVG 1.1//EN" "http://www.w3.org/Graphics/SVG/1.1/DTD/svg11.dtd"><svg t="1581008466728" class="icon" viewBox="0 0 1024 1024" version="1.1" xmlns="http://www.w3.org/2000/svg" p-id="2799" xmlns:xlink="http://www.w3.org/1999/xlink" width="200" height="200"><defs><style type="text/css"></style></defs><path d="M322.56 215.71328c-2.60864 1.0496-5.30944 3.8144-6.34112 6.49472-1.70496 4.42112-1.17248 477.45024 0.54272 481.54368 2.86464 6.848 9.96864 11.43552 62.6304 40.45568 11.264 6.208 24.82176 13.73696 30.12864 16.73472 17.27232 9.75104 20.06272 9.10848 56.91136-13.0816 8.448-5.08672 19.0464-11.22816 23.552-13.64736 4.5056-2.42176 18.3296-10.26304 30.72-17.42848 12.3904-7.16544 35.6608-20.62336 51.712-29.91104 16.0512-9.28512 34.2528-19.77344 40.448-23.3088 6.1952-3.53536 18.4064-10.6752 27.136-15.86688a1311.5136 1311.5136 0 0 1 32.256-18.44224c36.71296-20.17024 34.30656-14.29504 34.29888-83.6608-0.00768-70.44608 4.24704-62.56384-42.7008-79.08352a14513.6896 14513.6896 0 0 1-47.40608-16.77568c-10.9824-3.9168-27.5712-9.69728-36.864-12.84608-9.2928-3.14624-32.1024-11.08992-50.688-17.64864-74.7392-26.37568-73.00864-28.58496-39.90272 50.89792 5.95456 14.29248 11.98592 28.8256 13.40672 32.28928 5.81888 14.21568 8.82688 16.16128 61.14816 39.5392 17.53088 7.83104 13.57056 15.3984-17.24416 32.94976-10.7008 6.0928-29.3632 16.85248-41.472 23.90784-61.61152 35.90144-61.85472 36.02944-68.39808 36.0448-4.78464 0.01024-9.3952-3.33056-9.4592-6.85568-0.01792-1.0112-0.13312-84.32128-0.256-185.13408l-0.22272-183.296-2.176-4.70272c-3.05408-6.6048-5.23776-7.84128-30.592-17.31328-47.64416-17.79968-66.70336-23.65184-71.168-21.85472" fill="#F2F9F9" p-id="2800"></path><path d="M0 512v512h1024V0H0v512M352.064 222.59712c57.1776 19.58656 68.78208 24.77056 72.256 32.28416l2.176 4.70272 0.22272 183.296c0.12288 100.8128 0.23808 184.12288 0.256 185.13408 0.064 3.52512 4.67456 6.86592 9.4592 6.85568 6.54336-0.01536 6.78656-0.14336 68.39808-36.0448 12.1088-7.05536 30.7712-17.81504 41.472-23.90784 30.81472-17.55136 34.77504-25.11872 17.24416-32.94976-52.32128-23.37792-55.32928-25.32352-61.14816-39.5392-1.4208-3.46368-7.45216-17.9968-13.40672-32.28928-33.10592-79.48288-34.83648-77.2736 39.90272-50.89792 18.5856 6.55872 41.3952 14.5024 50.688 17.64864 9.2928 3.1488 25.8816 8.92928 36.864 12.84608a14513.6896 14513.6896 0 0 0 47.40608 16.77568c46.94784 16.51968 42.69312 8.63744 42.7008 79.08352 0.00768 69.36576 2.41408 63.49056-34.29888 83.6608a1311.5136 1311.5136 0 0 0-32.256 18.44224 2176.2432 2176.2432 0 0 1-27.136 15.86688c-6.1952 3.53536-24.3968 14.02368-40.448 23.3088-16.0512 9.28768-39.3216 22.7456-51.712 29.91104-12.3904 7.16544-26.2144 15.00672-30.72 17.42848-4.5056 2.4192-15.104 8.56064-23.552 13.64736-36.84864 22.19008-39.63904 22.83264-56.91136 13.0816a4493.94176 4493.94176 0 0 0-30.12864-16.73472c-52.66176-29.02016-59.76576-33.60768-62.6304-40.45568-1.7152-4.09344-2.24768-477.12256-0.54272-481.54368 3.45088-8.95488 8.73216-8.89856 35.84512 0.38912" fill="#048373" p-id="2801"></path></svg>